<svg width="155" height="29" viewBox="0 0 155 29" fill="none" xmlns="http://www.w3.org/2000/svg">
<path d="M71.6984 8.96803C73.4051 8.96803 74.7064 9.48003 75.6024 10.504C76.5198 11.5067 76.9784 13.1387 76.9784 15.4V23.272C76.9784 23.8907 76.7864 24.3707 76.4024 24.712C76.0398 25.032 75.5598 25.192 74.9624 25.192C74.3864 25.192 73.9064 25.032 73.5224 24.712C73.1598 24.3707 72.9784 23.8907 72.9784 23.272V15.4C72.9784 14.2267 72.7651 13.3947 72.3384 12.904C71.9331 12.392 71.3038 12.136 70.4504 12.136C69.4051 12.136 68.5731 12.4987 67.9544 13.224C67.3358 13.928 67.0264 14.8987 67.0264 16.136V23.272C67.0264 23.8907 66.8344 24.3707 66.4504 24.712C66.0878 25.032 65.6184 25.192 65.0424 25.192C64.4664 25.192 63.9864 25.032 63.6024 24.712C63.2184 24.3707 63.0264 23.8907 63.0264 23.272V15.4C63.0264 14.2267 62.8131 13.3947 62.3864 12.904C61.9811 12.392 61.3518 12.136 60.4984 12.136C59.4531 12.136 58.6211 12.4987 58.0024 13.224C57.4051 13.928 57.1064 14.8987 57.1064 16.136V23.272C57.1064 23.8907 56.9144 24.3707 56.5304 24.712C56.1464 25.032 55.6664 25.192 55.0904 25.192C54.5144 25.192 54.0344 25.032 53.6504 24.712C53.2878 24.3707 53.1064 23.8907 53.1064 23.272V10.888C53.1064 10.2907 53.2984 9.83203 53.6824 9.51203C54.0664 9.19203 54.5464 9.03203 55.1224 9.03203C55.6771 9.03203 56.1251 9.19203 56.4664 9.51203C56.8291 9.8107 57.0104 10.248 57.0104 10.824V11.592C57.5011 10.7387 58.1518 10.088 58.9624 9.64003C59.7944 9.19203 60.7438 8.96803 61.8104 8.96803C64.1571 8.96803 65.7251 9.94936 66.5144 11.912C66.9838 11.016 67.6771 10.3014 68.5944 9.76803C69.5118 9.2347 70.5464 8.96803 71.6984 8.96803Z" fill="black"/>
<path d="M87.8279 8.96803C90.0039 8.96803 91.6146 9.51203 92.6599 10.6C93.7266 11.6667 94.2599 13.2987 94.2599 15.496V23.304C94.2599 23.88 94.0893 24.3387 93.7479 24.68C93.4066 25 92.9373 25.16 92.3399 25.16C91.7853 25.16 91.3266 24.9894 90.9639 24.648C90.6226 24.3067 90.4519 23.8587 90.4519 23.304V22.6C90.0893 23.432 89.5133 24.0827 88.7239 24.552C87.9559 25.0214 87.0599 25.256 86.0359 25.256C84.9906 25.256 84.0413 25.0427 83.1879 24.616C82.3346 24.1894 81.6626 23.6027 81.1719 22.856C80.6813 22.1094 80.4359 21.2774 80.4359 20.36C80.4359 19.208 80.7239 18.3014 81.2999 17.64C81.8973 16.9787 82.8573 16.4987 84.1799 16.2C85.5026 15.9014 87.3266 15.752 89.6519 15.752H90.4519V15.016C90.4519 13.9707 90.2279 13.2134 89.7799 12.744C89.3319 12.2534 88.6066 12.008 87.6039 12.008C86.9853 12.008 86.3559 12.104 85.7159 12.296C85.0759 12.4667 84.3186 12.7227 83.4439 13.064C82.8893 13.3414 82.4839 13.48 82.2279 13.48C81.8439 13.48 81.5239 13.3414 81.2679 13.064C81.0333 12.7867 80.9159 12.424 80.9159 11.976C80.9159 11.6134 81.0013 11.304 81.1719 11.048C81.3639 10.7707 81.6733 10.5147 82.0999 10.28C82.8466 9.8747 83.7319 9.5547 84.7559 9.32003C85.8013 9.08536 86.8253 8.96803 87.8279 8.96803ZM86.8359 22.376C87.9026 22.376 88.7666 22.024 89.4279 21.32C90.1106 20.5947 90.4519 19.6667 90.4519 18.536V17.864H89.8759C88.4466 17.864 87.3373 17.928 86.5479 18.056C85.7586 18.184 85.1933 18.408 84.8519 18.728C84.5106 19.048 84.3399 19.4854 84.3399 20.04C84.3399 20.7227 84.5746 21.288 85.0439 21.736C85.5346 22.1627 86.1319 22.376 86.8359 22.376Z" fill="black"/>
<path d="M107.061 9.03203C107.616 8.98936 108.053 9.1067 108.373 9.38403C108.693 9.66136 108.853 10.0774 108.853 10.632C108.853 11.208 108.715 11.6347 108.437 11.912C108.16 12.1894 107.659 12.3707 106.933 12.456L105.973 12.552C104.715 12.68 103.787 13.1067 103.189 13.832C102.613 14.5574 102.325 15.464 102.325 16.552V23.272C102.325 23.8907 102.133 24.3707 101.749 24.712C101.365 25.032 100.885 25.192 100.309 25.192C99.7332 25.192 99.2532 25.032 98.8692 24.712C98.5065 24.3707 98.3252 23.8907 98.3252 23.272V10.888C98.3252 10.2907 98.5065 9.83203 98.8692 9.51203C99.2532 9.19203 99.7225 9.03203 100.277 9.03203C100.832 9.03203 101.28 9.19203 101.621 9.51203C101.963 9.8107 102.133 10.248 102.133 10.824V12.104C102.539 11.1654 103.136 10.44 103.925 9.92803C104.736 9.41603 105.632 9.12803 106.613 9.06403L107.061 9.03203Z" fill="black"/>
<path d="M124.495 21.896C124.922 22.3014 125.135 22.76 125.135 23.272C125.135 23.7627 124.954 24.2 124.591 24.584C124.25 24.968 123.845 25.16 123.375 25.16C122.906 25.16 122.469 24.968 122.063 24.584L114.575 17.8V23.272C114.575 23.8907 114.383 24.36 113.999 24.68C113.615 25 113.135 25.16 112.559 25.16C111.983 25.16 111.503 25 111.119 24.68C110.757 24.36 110.575 23.8907 110.575 23.272V4.16803C110.575 3.54936 110.757 3.08003 111.119 2.76003C111.503 2.44003 111.983 2.28003 112.559 2.28003C113.135 2.28003 113.615 2.44003 113.999 2.76003C114.383 3.08003 114.575 3.54936 114.575 4.16803V16.2L121.423 9.64003C121.807 9.25603 122.245 9.06403 122.735 9.06403C123.226 9.06403 123.653 9.24536 124.015 9.60803C124.378 9.9707 124.559 10.3974 124.559 10.888C124.559 11.3787 124.357 11.8267 123.951 12.232L118.927 16.904L124.495 21.896Z" fill="black"/>
<path d="M139.897 20.712C140.259 20.712 140.547 20.8507 140.761 21.128C140.995 21.4054 141.113 21.7787 141.113 22.248C141.113 22.9094 140.718 23.464 139.929 23.912C139.203 24.3174 138.382 24.648 137.465 24.904C136.547 25.1387 135.673 25.256 134.841 25.256C132.323 25.256 130.329 24.5307 128.857 23.08C127.385 21.6294 126.649 19.6454 126.649 17.128C126.649 15.528 126.969 14.1094 127.609 12.872C128.249 11.6347 129.145 10.6747 130.297 9.99203C131.47 9.30936 132.793 8.96803 134.265 8.96803C135.673 8.96803 136.899 9.27736 137.945 9.89603C138.99 10.5147 139.801 11.3894 140.377 12.52C140.953 13.6507 141.241 14.984 141.241 16.52C141.241 17.4374 140.835 17.896 140.025 17.896H130.585C130.713 19.368 131.129 20.456 131.833 21.16C132.537 21.8427 133.561 22.184 134.905 22.184C135.587 22.184 136.185 22.0987 136.697 21.928C137.23 21.7574 137.827 21.5227 138.489 21.224C139.129 20.8827 139.598 20.712 139.897 20.712ZM134.361 11.784C133.273 11.784 132.398 12.1254 131.737 12.808C131.097 13.4907 130.713 14.472 130.585 15.752H137.817C137.774 14.4507 137.454 13.4694 136.857 12.808C136.259 12.1254 135.427 11.784 134.361 11.784Z" fill="black"/>
<path d="M152.422 22.216C153.489 22.28 154.022 22.76 154.022 23.656C154.022 24.168 153.809 24.5627 153.382 24.84C152.977 25.096 152.39 25.2027 151.622 25.16L150.758 25.096C147.174 24.84 145.382 22.92 145.382 19.336V12.36H143.782C143.206 12.36 142.758 12.232 142.438 11.976C142.139 11.72 141.99 11.3467 141.99 10.856C141.99 10.3654 142.139 9.99203 142.438 9.73603C142.758 9.48003 143.206 9.35203 143.782 9.35203H145.382V6.40803C145.382 5.83203 145.563 5.37336 145.926 5.03203C146.289 4.6907 146.779 4.52003 147.398 4.52003C147.995 4.52003 148.475 4.6907 148.838 5.03203C149.201 5.37336 149.382 5.83203 149.382 6.40803V9.35203H152.102C152.678 9.35203 153.115 9.48003 153.414 9.73603C153.734 9.99203 153.894 10.3654 153.894 10.856C153.894 11.3467 153.734 11.72 153.414 11.976C153.115 12.232 152.678 12.36 152.102 12.36H149.382V19.624C149.382 21.2027 150.107 22.0454 151.558 22.152L152.422 22.216Z" fill="black"/>
<path fill-rule="evenodd" clip-rule="evenodd" d="M13.0848 0H29.8108C31.0705 0 32.0916 1.01504 32.0916 2.26716C32.0916 2.7577 31.9316 3.23501 31.6355 3.62745L23.4752 14.4426C22.4615 15.7861 20.4341 15.7861 19.4204 14.4426L11.2601 3.62745C10.964 3.23501 10.804 2.7577 10.804 2.26716C10.804 1.01504 11.8251 0 13.0848 0ZM0.0956795 25.5119L4.42469 9.45256C4.82317 7.97434 6.35175 7.0971 7.83888 7.49319C8.42149 7.64836 8.93776 7.98719 9.31019 8.4588L17.7078 19.093C18.9596 20.6782 18.3299 23.0141 16.4484 23.7648L3.82677 28.8006C3.26701 29.0239 2.64948 29.0608 2.06686 28.9056C0.579732 28.5095 -0.302795 26.9901 0.0956795 25.5119ZM37.9599 9.45256L42.2889 25.5119C42.6874 26.9901 41.8049 28.5095 40.3178 28.9056C39.7351 29.0608 39.1176 29.0239 38.5578 28.8006L25.9362 23.7648C24.0547 23.0141 23.425 20.6782 24.6768 19.093L33.0744 8.4588C33.4469 7.98719 33.9631 7.64836 34.5457 7.49319C36.0329 7.0971 37.5614 7.97434 37.9599 9.45256Z" fill="url(#paint0_linear_1066_303)"/>
<defs>
<linearGradient id="paint0_linear_1066_303" x1="2.91748" y1="-4.53125" x2="43.2516" y2="16.0881" gradientUnits="userSpaceOnUse">
<stop stop-color="#F21587"/>
<stop offset="1" stop-color="#B476EA"/>
</linearGradient>
</defs>
</svg>
