<svg width="44" height="44" viewBox="0 0 44 44" fill="none" xmlns="http://www.w3.org/2000/svg">
<path fill-rule="evenodd" clip-rule="evenodd" d="M14.7312 9H29.7269C30.8563 9 31.7718 9.91004 31.7718 11.0326C31.7718 11.4724 31.6283 11.9004 31.3628 12.2522L24.0467 21.9486C23.1379 23.1531 21.3202 23.1531 20.4114 21.9486L13.0953 12.2522C12.8298 11.9004 12.6863 11.4724 12.6863 11.0326C12.6863 9.91004 13.6018 9 14.7312 9ZM3.08578 31.8727L6.96697 17.4747C7.32422 16.1494 8.69467 15.3629 10.028 15.718C10.5503 15.8572 11.0132 16.1609 11.3471 16.5838L18.8759 26.1178C19.9982 27.5391 19.4337 29.6333 17.7469 30.3063L6.4309 34.8212C5.92904 35.0214 5.37539 35.0545 4.85305 34.9153C3.51976 34.5602 2.72853 33.198 3.08578 31.8727ZM37.033 17.4747L40.9142 31.8727C41.2715 33.198 40.4802 34.5602 39.147 34.9153C38.6246 35.0545 38.071 35.0214 37.5691 34.8212L26.2531 30.3063C24.5663 29.6333 24.0017 27.5391 25.1241 26.1178L32.6529 16.5838C32.9868 16.1609 33.4497 15.8572 33.972 15.718C35.3053 15.3629 36.6758 16.1494 37.033 17.4747Z" fill="url(#paint0_linear_384_3)"/>
<defs>
<linearGradient id="paint0_linear_384_3" x1="5.61567" y1="4.9375" x2="41.7773" y2="23.4238" gradientUnits="userSpaceOnUse">
<stop stop-color="#F21587"/>
<stop offset="1" stop-color="#B476EA"/>
</linearGradient>
</defs>
</svg>
