<svg width="129" height="135" viewBox="0 0 129 135" fill="none" xmlns="http://www.w3.org/2000/svg">
<rect x="11.7148" y="0.0144043" width="117" height="125" rx="16" transform="rotate(5 11.7148 0.0144043)" fill="#F9CCE5"/>
<rect x="11.3662" y="-0.000793457" width="117" height="117" rx="16" transform="rotate(5 11.3662 -0.000793457)" fill="white"/>
<path fill-rule="evenodd" clip-rule="evenodd" d="M88.9235 76.7304L88.9277 76.7312L88.9633 76.5297L92.1958 58.1971L92.1916 58.1964C92.2062 58.1299 92.2195 58.063 92.2313 57.9957C93.3103 51.8763 82.5008 44.8553 68.0876 42.3139C53.6744 39.7725 41.1155 42.673 40.0365 48.7923C40.0246 48.8596 40.0142 48.927 40.0052 48.9945L40.001 48.9938L36.7685 67.3264L36.7329 67.5278L36.7372 67.5286C35.9276 73.5996 46.6574 80.4947 60.9121 83.0082C75.1668 85.5216 87.6078 82.7122 88.9235 76.7304ZM89.257 58.3021C88.4134 63.0864 77.4945 65.16 64.869 62.9338C52.2435 60.7076 42.6923 55.0245 43.5359 50.2403C44.3795 45.456 55.2984 43.3823 67.9239 45.6085C80.5494 47.8348 90.1005 53.5179 89.257 58.3021ZM65.459 57.2217C71.3807 58.2659 76.4197 57.7594 76.714 56.0905C77.0083 54.4215 72.4464 52.2221 66.5247 51.178C60.603 50.1338 55.5639 50.6403 55.2696 52.3092C54.9754 53.9782 59.5373 56.1775 65.459 57.2217Z" fill="url(#paint0_linear)"/>
<defs>
<linearGradient id="paint0_linear" x1="41.9902" y1="37.7122" x2="34.8147" y2="78.4065" gradientUnits="userSpaceOnUse">
<stop stop-color="white"/>
<stop offset="1" stop-color="#CD6DF5"/>
</linearGradient>
</defs>
</svg>
